<mxfile host="65bd71144e">
    <diagram id="nIzcQfjJBCHvTLqPQj_c" name="PÃ¡gina-1">
        <mxGraphModel dx="589" dy="404" grid="1" gridSize="10" guides="1" tooltips="1" connect="1" arrows="1" fold="1" page="1" pageScale="1" pageWidth="827" pageHeight="1169" math="0" shadow="0">
            <root>
                <mxCell id="0"/>
                <mxCell id="1" parent="0"/>
                <mxCell id="20" value="" style="edgeStyle=none;html=1;" edge="1" parent="1">
                    <mxGeometry relative="1" as="geometry">
                        <mxPoint x="680" y="539.9999999999999" as="sourcePoint"/>
                        <mxPoint x="680" y="640" as="targetPoint"/>
                    </mxGeometry>
                </mxCell>
                <mxCell id="11" value="&lt;span&gt;Tbi10k=0&lt;/span&gt;&lt;br&gt;&lt;span&gt;Tbi2k=0&lt;/span&gt;&lt;br&gt;&lt;span&gt;Tmon=0&lt;/span&gt;" style="shape=document;whiteSpace=wrap;html=1;boundedLbl=1;strokeColor=#006EAF;fillColor=#1ba1e2;fontColor=#ffffff;" vertex="1" parent="1">
                    <mxGeometry x="621" y="454" width="120" height="100" as="geometry"/>
                </mxCell>
                <mxCell id="6" value="" style="edgeStyle=none;html=1;" edge="1" parent="1" source="2" target="5">
                    <mxGeometry relative="1" as="geometry"/>
                </mxCell>
                <mxCell id="2" value="INICIO" style="ellipse;whiteSpace=wrap;html=1;fillColor=#60a917;fontColor=#ffffff;strokeColor=#2D7600;" vertex="1" parent="1">
                    <mxGeometry x="354" width="86" height="50" as="geometry"/>
                </mxCell>
                <mxCell id="7" style="edgeStyle=none;html=1;entryX=0.5;entryY=0;entryDx=0;entryDy=0;" edge="1" parent="1">
                    <mxGeometry relative="1" as="geometry">
                        <mxPoint x="399.5" y="280" as="targetPoint"/>
                        <mxPoint x="401.5" y="230" as="sourcePoint"/>
                    </mxGeometry>
                </mxCell>
                <mxCell id="5" value="Tbi10k=0&lt;br&gt;Tbi2k=0&lt;br&gt;Tmon=0&lt;br&gt;bi10k=0&lt;br&gt;bi2k=0&lt;br&gt;mon1=0&lt;br&gt;cheque=int" style="shape=parallelogram;perimeter=parallelogramPerimeter;whiteSpace=wrap;html=1;fixedSize=1;fillColor=#e51400;fontColor=#ffffff;strokeColor=#B20000;" vertex="1" parent="1">
                    <mxGeometry x="306" y="124" width="183" height="105" as="geometry"/>
                </mxCell>
                <mxCell id="12" value="" style="edgeStyle=none;html=1;" edge="1" parent="1" source="9" target="11">
                    <mxGeometry relative="1" as="geometry">
                        <Array as="points">
                            <mxPoint x="680" y="320"/>
                        </Array>
                    </mxGeometry>
                </mxCell>
                <mxCell id="14" value="" style="edgeStyle=none;html=1;" edge="1" parent="1" source="9" target="13">
                    <mxGeometry relative="1" as="geometry"/>
                </mxCell>
                <mxCell id="9" value="cheque!=0" style="rhombus;whiteSpace=wrap;html=1;fillColor=#f0a30a;fontColor=#000000;strokeColor=#BD7000;" vertex="1" parent="1">
                    <mxGeometry x="360.5" y="280" width="80" height="80" as="geometry"/>
                </mxCell>
                <mxCell id="13" value="&lt;p class=&quot;selectable-text copyable-text&quot;&gt;&lt;span class=&quot;selectable-text copyable-text&quot;&gt;bi10k=cheque//10000&lt;/span&gt;&lt;/p&gt;&lt;p class=&quot;selectable-text copyable-text&quot;&gt;&lt;span class=&quot;selectable-text copyable-text&quot;&gt;   bi2k=((cheque-(bi10k*10000)))//2000&lt;/span&gt;&lt;/p&gt;&lt;p class=&quot;selectable-text copyable-text&quot;&gt;&lt;span class=&quot;selectable-text copyable-text&quot;&gt;   mon1=((cheque-(bi10k*10000))-(bi2k*2000))//100&lt;/span&gt;&lt;/p&gt;&lt;p class=&quot;selectable-text copyable-text&quot;&gt;&lt;span class=&quot;selectable-text copyable-text&quot;&gt;   Tbi10k=Tbi10k+bi10k&lt;/span&gt;&lt;/p&gt;&lt;p class=&quot;selectable-text copyable-text&quot;&gt;&lt;span class=&quot;selectable-text copyable-text&quot;&gt;   Tbi2k=Tbi2k+bi2k &lt;/span&gt;&lt;/p&gt;&lt;p class=&quot;selectable-text copyable-text&quot;&gt;&lt;span class=&quot;selectable-text copyable-text&quot;&gt;   Tmon=Tmon+mon1&lt;/span&gt;&lt;/p&gt;" style="whiteSpace=wrap;html=1;fillColor=#d80073;fontColor=#ffffff;strokeColor=#A50040;" vertex="1" parent="1">
                    <mxGeometry x="270" y="450" width="252.5" height="240" as="geometry"/>
                </mxCell>
                <mxCell id="16" value="" style="endArrow=classic;html=1;" edge="1" parent="1">
                    <mxGeometry width="50" height="50" relative="1" as="geometry">
                        <mxPoint x="390" y="690" as="sourcePoint"/>
                        <mxPoint x="180" y="520" as="targetPoint"/>
                        <Array as="points">
                            <mxPoint x="390" y="720"/>
                            <mxPoint x="180" y="720"/>
                        </Array>
                    </mxGeometry>
                </mxCell>
                <mxCell id="18" style="edgeStyle=none;html=1;entryX=0;entryY=0.5;entryDx=0;entryDy=0;" edge="1" parent="1" source="17" target="9">
                    <mxGeometry relative="1" as="geometry">
                        <Array as="points">
                            <mxPoint x="180" y="320"/>
                        </Array>
                    </mxGeometry>
                </mxCell>
                <mxCell id="17" value="cheque" style="rounded=0;whiteSpace=wrap;html=1;fillColor=#d80073;fontColor=#ffffff;strokeColor=#A50040;" vertex="1" parent="1">
                    <mxGeometry x="120" y="454" width="120" height="60" as="geometry"/>
                </mxCell>
                <mxCell id="19" value="FIN" style="ellipse;whiteSpace=wrap;html=1;fillColor=#60a917;strokeColor=#2D7600;fontColor=#ffffff;" vertex="1" parent="1">
                    <mxGeometry x="627" y="640" width="109" height="40" as="geometry"/>
                </mxCell>
            </root>
        </mxGraphModel>
    </diagram>
</mxfile>